<svg xmlns="http://www.w3.org/2000/svg" width="220" height="50" viewBox="0 0 220 50">
  <defs>
    <linearGradient id="logoGradient" x1="0%" y1="0%" x2="100%" y2="100%">
      <stop offset="0%" stop-color="#d4af37" />
      <stop offset="50%" stop-color="#f2dc9e" />
      <stop offset="100%" stop-color="#d4af37" />
    </linearGradient>
  </defs>
  <g fill="none">
    <path d="M32,10 C40.8,10 48,17.2 48,26 C48,34.8 40.8,42 32,42 C23.2,42 16,34.8 16,26 C16,17.2 23.2,10 32,10 Z" fill="url(#logoGradient)" />
    <path d="M32,14 C38.6,14 44,19.4 44,26 C44,32.6 38.6,38 32,38 C25.4,38 20,32.6 20,26 C20,19.4 25.4,14 32,14 Z" fill="#14151a" />
    <path d="M34,20 L37,24 L34,28 L30,28 L27,24 L30,20 L34,20 Z" fill="url(#logoGradient)" />
    <path d="M42,25 L38,32 M22,25 L26,32 M32,34 L32,38" stroke="url(#logoGradient)" stroke-width="2" stroke-linecap="round" />
    
    <text x="60" y="35" font-family="'Arial', sans-serif" font-size="26" font-weight="800" fill="url(#logoGradient)">CSERVICE</text>
    <text x="60" y="47" font-family="'Arial', sans-serif" font-size="10" fill="#999">PREMIUM VEHICLE CARE</text>
  </g>
</svg>