<svg xmlns="http://www.w3.org/2000/svg" width="512" height="512" viewBox="0 0 24 24" fill="none" stroke="#d4af37" stroke-width="1.5" stroke-linecap="round" stroke-linejoin="round">
    <path d="M19 17h2c.6 0 1-.4 1-1v-3c0-.9-.7-1.7-1.5-1.9C18.7 10.6 16 10 16 10s-1.3-1.4-2.2-2.3c-.5-.6-1.2-.9-1.9-1.1-.7-.1-1.4-.1-2.1 0-.7.1-1.4.3-1.9.8C7.2 8 6.1 8.9 5.1 9.6c-.8.6-1.5 1.3-2 2.2-.6.9-.9 1.9-.9 3v1.3c0 .5.4.9.9.9H5"/>
    <circle cx="7" cy="17" r="2"/>
    <path d="M9 17h6"/>
    <circle cx="17" cy="17" r="2"/>
    <path d="M14 7V6c0-.6-.4-1-1-1H9c-.6 0-1 .4-1 1v1"/>
    <path d="m14 15 3-4"/>
    <path d="m5 15 3-4"/>
    <path d="M10.5 11.5v4"/>
</svg>